<svg viewBox="0 0 330 200" xmlns="http://www.w3.org/2000/svg"><g><g><g><g><g><line x1="61.953125" y1="178" x2="56.953125" y2="178" style="visibility: inherit;" fill="rgb(0, 0, 0)" stroke="rgb(204, 204, 204)" stroke-width="1px"></line><line x1="61.953125" y1="163.16666666666666" x2="56.953125" y2="163.16666666666666" style="visibility: inherit;" fill="rgb(0, 0, 0)" stroke="rgb(204, 204, 204)" stroke-width="1px"></line><line x1="61.953125" y1="148.33333333333334" x2="56.953125" y2="148.33333333333334" style="visibility: inherit;" fill="rgb(0, 0, 0)" stroke="rgb(204, 204, 204)" stroke-width="1px"></line><line x1="61.953125" y1="133.5" x2="56.953125" y2="133.5" style="visibility: inherit;" fill="rgb(0, 0, 0)" stroke="rgb(204, 204, 204)" stroke-width="1px"></line><line x1="61.953125" y1="118.66666666666669" x2="56.953125" y2="118.66666666666669" style="visibility: inherit;" fill="rgb(0, 0, 0)" stroke="rgb(204, 204, 204)" stroke-width="1px"></line><line x1="61.953125" y1="103.83333333333334" x2="56.953125" y2="103.83333333333334" style="visibility: inherit;" fill="rgb(0, 0, 0)" stroke="rgb(204, 204, 204)" stroke-width="1px"></line><line x1="61.953125" y1="89.00000000000001" x2="56.953125" y2="89.00000000000001" style="visibility: inherit;" fill="rgb(0, 0, 0)" stroke="rgb(204, 204, 204)" stroke-width="1px"></line><line x1="61.953125" y1="74.16666666666669" x2="56.953125" y2="74.16666666666669" style="visibility: inherit;" fill="rgb(0, 0, 0)" stroke="rgb(204, 204, 204)" stroke-width="1px"></line><line x1="61.953125" y1="59.33333333333336" x2="56.953125" y2="59.33333333333336" style="visibility: inherit;" fill="rgb(0, 0, 0)" stroke="rgb(204, 204, 204)" stroke-width="1px"></line><line x1="61.953125" y1="44.50000000000002" x2="56.953125" y2="44.50000000000002" style="visibility: inherit;" fill="rgb(0, 0, 0)" stroke="rgb(204, 204, 204)" stroke-width="1px"></line><line x1="61.953125" y1="29.66666666666668" x2="56.953125" y2="29.66666666666668" style="visibility: inherit;" fill="rgb(0, 0, 0)" stroke="rgb(204, 204, 204)" stroke-width="1px"></line><line x1="61.953125" y1="14.83333333333334" x2="56.953125" y2="14.83333333333334" style="visibility: inherit;" fill="rgb(0, 0, 0)" stroke="rgb(204, 204, 204)" stroke-width="1px"></line><line x1="61.953125" y1="0" x2="56.953125" y2="0" style="visibility: inherit;" fill="rgb(0, 0, 0)" stroke="rgb(204, 204, 204)" stroke-width="1px"></line></g><g transform="translate(51.953125, 0)"><text x="0" y="178" dx="0em" dy="0.3em" style="text-anchor: end; visibility: hidden; font-family: Roboto, sans-serif; font-size: 12px; font-weight: 200;" fill="rgb(50, 49, 63)" stroke="none" stroke-width="1px">-0.05</text><text x="0" y="163.16666666666666" dx="0em" dy="0.3em" style="text-anchor: end; visibility: inherit; font-family: Roboto, sans-serif; font-size: 12px; font-weight: 200;" fill="rgb(50, 49, 63)" stroke="none" stroke-width="1px">0</text><text x="0" y="148.33333333333334" dx="0em" dy="0.3em" style="text-anchor: end; visibility: hidden; font-family: Roboto, sans-serif; font-size: 12px; font-weight: 200;" fill="rgb(50, 49, 63)" stroke="none" stroke-width="1px">0.05</text><text x="0" y="133.5" dx="0em" dy="0.3em" style="text-anchor: end; visibility: inherit; font-family: Roboto, sans-serif; font-size: 12px; font-weight: 200;" fill="rgb(50, 49, 63)" stroke="none" stroke-width="1px">0.1</text><text x="0" y="118.66666666666669" dx="0em" dy="0.3em" style="text-anchor: end; visibility: hidden; font-family: Roboto, sans-serif; font-size: 12px; font-weight: 200;" fill="rgb(50, 49, 63)" stroke="none" stroke-width="1px">0.15</text><text x="0" y="103.83333333333334" dx="0em" dy="0.3em" style="text-anchor: end; visibility: inherit; font-family: Roboto, sans-serif; font-size: 12px; font-weight: 200;" fill="rgb(50, 49, 63)" stroke="none" stroke-width="1px">0.2</text><text x="0" y="89.00000000000001" dx="0em" dy="0.3em" style="text-anchor: end; visibility: hidden; font-family: Roboto, sans-serif; font-size: 12px; font-weight: 200;" fill="rgb(50, 49, 63)" stroke="none" stroke-width="1px">0.25</text><text x="0" y="74.16666666666669" dx="0em" dy="0.3em" style="text-anchor: end; visibility: inherit; font-family: Roboto, sans-serif; font-size: 12px; font-weight: 200;" fill="rgb(50, 49, 63)" stroke="none" stroke-width="1px">0.3</text><text x="0" y="59.33333333333336" dx="0em" dy="0.3em" style="text-anchor: end; visibility: hidden; font-family: Roboto, sans-serif; font-size: 12px; font-weight: 200;" fill="rgb(50, 49, 63)" stroke="none" stroke-width="1px">0.35</text><text x="0" y="44.50000000000002" dx="0em" dy="0.3em" style="text-anchor: end; visibility: inherit; font-family: Roboto, sans-serif; font-size: 12px; font-weight: 200;" fill="rgb(50, 49, 63)" stroke="none" stroke-width="1px">0.4</text><text x="0" y="29.66666666666668" dx="0em" dy="0.3em" style="text-anchor: end; visibility: hidden; font-family: Roboto, sans-serif; font-size: 12px; font-weight: 200;" fill="rgb(50, 49, 63)" stroke="none" stroke-width="1px">0.45</text><text x="0" y="14.83333333333334" dx="0em" dy="0.3em" style="text-anchor: end; visibility: inherit; font-family: Roboto, sans-serif; font-size: 12px; font-weight: 200;" fill="rgb(50, 49, 63)" stroke="none" stroke-width="1px">0.5</text><text x="0" y="0" dx="0em" dy="0.3em" style="text-anchor: end; visibility: hidden; font-family: Roboto, sans-serif; font-size: 12px; font-weight: 200;" fill="rgb(50, 49, 63)" stroke="none" stroke-width="1px">0.55</text></g><line x1="61.953125" y1="0" x2="61.953125" y2="178" fill="rgb(0, 0, 0)" stroke="rgb(204, 204, 204)" stroke-width="1px"></line></g></g><g transform="translate(61, 0)" clip-path="url(#clip_0)"><clipPath id="clip_0"><rect width="268" height="178"></rect></clipPath><g><g><g><line x1="0" y1="0" x2="0" y2="178" fill="rgb(0, 0, 0)" stroke="rgb(60, 60, 60)" stroke-width="1px" opacity="0.25"></line><line x1="33.505859375" y1="0" x2="33.505859375" y2="178" fill="rgb(0, 0, 0)" stroke="rgb(60, 60, 60)" stroke-width="1px" opacity="0.25"></line><line x1="67.01171875" y1="0" x2="67.01171875" y2="178" fill="rgb(0, 0, 0)" stroke="rgb(60, 60, 60)" stroke-width="1px" opacity="0.25"></line><line x1="100.517578125" y1="0" x2="100.517578125" y2="178" fill="rgb(0, 0, 0)" stroke="rgb(60, 60, 60)" stroke-width="1px" opacity="0.25"></line><line x1="134.0234375" y1="0" x2="134.0234375" y2="178" fill="rgb(0, 0, 0)" stroke="rgb(60, 60, 60)" stroke-width="1px" opacity="0.25"></line><line x1="167.529296875" y1="0" x2="167.529296875" y2="178" fill="rgb(0, 0, 0)" stroke="rgb(60, 60, 60)" stroke-width="1px" opacity="0.25"></line><line x1="201.03515625" y1="0" x2="201.03515625" y2="178" fill="rgb(0, 0, 0)" stroke="rgb(60, 60, 60)" stroke-width="1px" opacity="0.25"></line><line x1="234.541015625" y1="0" x2="234.541015625" y2="178" fill="rgb(0, 0, 0)" stroke="rgb(60, 60, 60)" stroke-width="1px" opacity="0.25"></line><line x1="268.046875" y1="0" x2="268.046875" y2="178" fill="rgb(0, 0, 0)" stroke="rgb(60, 60, 60)" stroke-width="1px" opacity="0.25"></line></g><g><line x1="0" y1="178" x2="268.046875" y2="178" fill="rgb(0, 0, 0)" stroke="rgb(60, 60, 60)" stroke-width="1px" opacity="0.25"></line><line x1="0" y1="163.16666666666666" x2="268.046875" y2="163.16666666666666" fill="rgb(0, 0, 0)" stroke="rgb(60, 60, 60)" stroke-width="1px" opacity="0.25"></line><line x1="0" y1="148.33333333333334" x2="268.046875" y2="148.33333333333334" fill="rgb(0, 0, 0)" stroke="rgb(60, 60, 60)" stroke-width="1px" opacity="0.25"></line><line x1="0" y1="133.5" x2="268.046875" y2="133.5" fill="rgb(0, 0, 0)" stroke="rgb(60, 60, 60)" stroke-width="1px" opacity="0.25"></line><line x1="0" y1="118.66666666666669" x2="268.046875" y2="118.66666666666669" fill="rgb(0, 0, 0)" stroke="rgb(60, 60, 60)" stroke-width="1px" opacity="0.25"></line><line x1="0" y1="103.83333333333334" x2="268.046875" y2="103.83333333333334" fill="rgb(0, 0, 0)" stroke="rgb(60, 60, 60)" stroke-width="1px" opacity="0.25"></line><line x1="0" y1="89.00000000000001" x2="268.046875" y2="89.00000000000001" fill="rgb(0, 0, 0)" stroke="rgb(60, 60, 60)" stroke-width="1px" opacity="0.25"></line><line x1="0" y1="74.16666666666669" x2="268.046875" y2="74.16666666666669" fill="rgb(0, 0, 0)" stroke="rgb(60, 60, 60)" stroke-width="1px" opacity="0.25"></line><line x1="0" y1="59.33333333333336" x2="268.046875" y2="59.33333333333336" fill="rgb(0, 0, 0)" stroke="rgb(60, 60, 60)" stroke-width="1px" opacity="0.25"></line><line x1="0" y1="44.50000000000002" x2="268.046875" y2="44.50000000000002" fill="rgb(0, 0, 0)" stroke="rgb(60, 60, 60)" stroke-width="1px" opacity="0.25"></line><line x1="0" y1="29.66666666666668" x2="268.046875" y2="29.66666666666668" fill="rgb(0, 0, 0)" stroke="rgb(60, 60, 60)" stroke-width="1px" opacity="0.25"></line><line x1="0" y1="14.83333333333334" x2="268.046875" y2="14.83333333333334" fill="rgb(0, 0, 0)" stroke="rgb(60, 60, 60)" stroke-width="1px" opacity="0.25"></line><line x1="0" y1="0" x2="268.046875" y2="0" fill="rgb(0, 0, 0)" stroke="rgb(60, 60, 60)" stroke-width="1px" opacity="0.25"></line></g></g></g><g><g><line x1="0" y1="163.16666666666666" x2="268.046875" y2="163.16666666666666" fill="rgb(0, 0, 0)" stroke="rgb(153, 153, 153)" stroke-width="1.5px"></line></g></g><g><g><line x1="33.505859375" y1="0" x2="33.505859375" y2="178" fill="rgb(0, 0, 0)" stroke="rgb(153, 153, 153)" stroke-width="1.5px"></line></g></g><g><g><g><g><g><path stroke="rgb(238, 51, 119)" stroke-width="2px" d="M42.2173828125,-11.436998209058068L42.8875,1.763344835886453L43.5576171875,12.336309928215483L44.227734375000004,21.252702733028052L44.8978515625,27.752189850174965L45.567968750000006,33.06345209943988L46.238085937499996,38.08931070146623L46.908203125,42.55241586964998L47.5783203125,45.170840663179185L48.2484375,48.52188050845836L48.9185546875,51.75475374551658L49.588671875,52.82819182698812L50.2587890625,54.694519264863565L50.92890625,56.75178055227695L51.5990234375,58.5557382306907L52.269140625,61.631711262021184L52.9392578125,61.234492213729524L53.609375,61.814962541957854L54.279492187500004,62.83964381849746L54.949609374999994,65.08018695604395L55.6197265625,64.40718051135441L56.289843749999996,65.6291075043691L56.9599609375,66.26733227234392L57.630078125,66.6265333907777L58.3001953125,66.6403190782709L58.9703125,66.07899145619515L59.6404296875,67.85446194609058L60.310546875,69.31134556210112L60.980664062500004,70.25667339922954L61.65078125,71.97493680219269L62.320898437500006,73.5754938760079L62.991015624999996,74.09676286221696L63.6611328125,74.4095242538846L64.33125,73.70718193757904L65.0013671875,74.86404340693734L65.671484375,74.9766926202961L66.3416015625,76.32588262363832L67.01171875,75.04686330359874L67.6818359375,75.88145230572846L68.351953125,75.31420531090787L69.0220703125,75.94692256977287L69.6921875,76.6113542095636L70.3623046875,77.401610980977L71.032421875,76.8908344887986L71.70253906250001,76.71490236818555L72.37265625,77.27387353201573L73.0427734375,77.51432482651792L73.712890625,77.97899572204706L74.38300781250001,78.8511310268511L75.05312500000001,79.73041116291704L75.72324218749999,79.80704535103493L76.39335937499999,81.00409256452316L77.0634765625,81.95965470691915L77.73359375,82.39059311839183L78.4037109375,82.47115492041253L79.07382812499999,80.34789237508384L79.7439453125,79.98766773420101L80.4140625,81.08873225933824L81.0841796875,83.12590639007003L81.754296875,83.09034412828234L82.4244140625,84.4811410212148L83.09453125,85.0070841374176L83.7646484375,85.83291647010113L84.434765625,86.73188229306379L85.1048828125,85.78792986812496L85.775,85.89795748517297L86.4451171875,87.24557453071307L87.115234375,87.29467938150107L87.7853515625,86.50534080945536L88.45546875000001,86.24533774544649L89.1255859375,84.36867017402164L89.795703125,85.46173672787693L90.4658203125,86.16504059381695L91.13593750000001,88.0347577660128L91.80605468750001,87.72072185251184L92.47617187499999,88.29176568094731L93.14628906249999,87.21039262873238L93.81640625,87.52276915388688L94.4865234375,85.36059419757555L95.156640625,86.09248997636497L95.82675781249999,86.80456009229736L96.496875,85.95020168654551L97.1669921875,87.28878791907886L97.837109375,89.12433945206477L98.5072265625,89.15766997576361L99.17734375,89.22513576015199L99.8474609375,89.44361470737675L100.517578125,88.25750099777353L101.1876953125,89.33770147855584L101.8578125,88.19395306048098L102.5279296875,88.80117135248963L103.198046875,87.93137109082372L103.8681640625,87.39762229801077L104.53828125,88.96417313266313L105.20839843750001,91.5179710951359L105.878515625,92.56371537647115L106.5486328125,93.36916319013518L107.21875,93.53203175950576L107.88886718750001,93.57041856341677L108.55898437500001,93.2255848250376L109.22910156249999,93.07801715145034L109.89921874999999,93.58281108305567L110.5693359375,93.45848728358179L111.239453125,94.77229175054688L111.9095703125,94.82484102100328L112.57968749999999,93.8951719950648L113.2498046875,93.2424374074347L113.919921875,93.50346199178342L114.5900390625,94.41954388719985L115.26015625,93.65199371478273L115.9302734375,93.86786268334377L116.600390625,93.61765137621238L117.2705078125,94.59485755746648L117.940625,94.84891427984886L118.6107421875,95.71334798791636L119.280859375,95.46067596867859L119.9509765625,94.96493890322357L120.62109375,95.43883067629999L121.2912109375,96.49449798422417L121.96132812500001,96.72443194562611L122.6314453125,95.9011919659838L123.3015625,94.4460493899861L123.9716796875,93.97643026774006L124.64179687500001,93.12505799371925L125.31191406250001,92.6973009338315L125.98203124999999,92.76104681672666L126.65214843749999,93.27396197506994L127.322265625,93.35624412331508L127.9923828125,93.47681284924464L128.6625,94.39168753413429L129.3326171875,94.71514539830727L130.002734375,94.03108783312346L130.6728515625,93.97665224719668L131.34296875,93.59985880999938L132.0130859375,93.68231599896654L132.683203125,93.28085641882524L133.3533203125,93.18238131297653L134.0234375,94.63036190326825L134.69355468749998,95.60595029705254L135.363671875,95.43183618851597L136.03378906249998,95.71896904747543L136.70390625,95.71324751798824L137.3740234375,95.35381564711241L138.044140625,95.3398897362632L138.7142578125,96.23340020852582L139.384375,94.2537730114299L140.0544921875,94.8103979295475L140.724609375,95.76143938298917L141.39472656249998,96.4269974271212L142.06484375,96.28046518801177L142.7349609375,96.46547849320486L143.40507812500002,96.89688659514853L144.0751953125,95.85039901419007L144.7453125,95.80397236555926L145.4154296875,96.03718392576842L146.085546875,97.10271061575058L146.7556640625,97.83695980180687L147.42578125,98.05204236667983L148.0958984375,96.5790913114645L148.76601562500002,97.36852070945687L149.4361328125,97.40311309054408L150.10625000000002,95.67946728282124L150.7763671875,95.63021388975551L151.44648437499998,96.17026088631812L152.1166015625,96.11455639598765L152.78671874999998,95.57086723882755L153.4568359375,96.71612056397677L154.126953125,97.72367267789413L154.7970703125,98.86220414429091L155.4671875,100.06745635463307L156.1373046875,99.14113961653021L156.807421875,97.83775106467469L157.4775390625,95.8453168952326L158.14765624999998,96.01452317340335L158.8177734375,96.32964701952434L159.487890625,96.76792200904231L160.15800781250002,95.68995395800155L160.828125,96.31290496687501L161.4982421875,97.29187697549905L162.168359375,97.55886006184566L162.8384765625,98.16998203890414L163.50859375,97.91958872256811L164.1787109375,98.42201983796436L164.848828125,97.97587822993725L165.51894531250002,97.73192700020549L166.1890625,97.609289997451L166.85917968750002,97.64250783540754L167.529296875,97.97097178946704L168.19941406249998,98.01378265212439L168.86953125,99.76013667100945L169.53964843749998,98.99234840898282L170.209765625,99.16060882188025L170.8798828125,98.38343278593109L171.55,98.11886037603789L172.2201171875,98.1737170093205L172.890234375,98.94236439901272L173.5603515625,99.68835234902907L174.23046875,99.09167845803067L174.90058593749998,98.3302077000791L175.570703125,100.29412378542348L176.2408203125,102.3268737535043L176.91093750000002,103.19052478116932L177.5810546875,104.04098238413842L178.251171875,104.0409887146869L178.9212890625,103.77992673189951L179.59140625,101.89075517339414L180.2615234375,101.64725315779194L180.931640625,102.10635158345946L181.6017578125,101.52741032198577L182.27187500000002,102.31924539817678L182.9419921875,102.69941327182435L183.61210937500002,102.53591444020262L184.2822265625,102.79381586268418L184.95234374999998,103.11468932522263L185.6224609375,102.78508007224158L186.29257812499998,104.0350476048137L186.9626953125,103.95436154256733L187.6328125,103.47874974678243L188.3029296875,103.47818395378361L188.973046875,104.0711772454709L189.6431640625,102.6588400172947L190.31328125,103.22357016212295L190.9833984375,102.92160801136424L191.65351562499998,102.77603132353582L192.3236328125,101.75121868943984L192.99375,102.18059776999047L193.66386718750002,102.12969196703527L194.333984375,102.95354880213634L195.0041015625,102.39172937464653L195.67421875,102.09023832077943L196.3443359375,102.20601007220247L197.014453125,102.19240681853155L197.6845703125,103.98797690387325L198.3546875,104.3770530155247L199.02480468750002,104.19516539162073L199.694921875,101.67709937643414L200.36503906250002,101.80385919581695L201.03515625,102.4495158881198L201.70527343749998,103.6913102203757L202.375390625,103.19038694704476L203.04550781249998,101.95236636164726L203.715625,101.51808726169432L204.3857421875,101.73218566205757L205.055859375,101.99117847696935L205.7259765625,102.1228404308319L206.39609375,102.0713038284556L207.0662109375,102.77611527675246L207.736328125,101.76313592891209L208.40644531249998,101.87921486238824L209.0765625,101.5453957991214L209.7466796875,101.36883809624581L210.41679687500002,103.42263623351934L211.0869140625,103.49198154772373L211.75703125,103.20132174987626L212.4271484375,103.18119338094613L213.097265625,102.63511616154167L213.7673828125,103.64840287465049L214.4375,103.69864096938488L215.1076171875,103.69318499186983L215.77773437500002,102.00484450669695L216.4478515625,102.81930598822203L217.11796875000002,103.2011828375278L217.7880859375,104.11857665493598L218.45820312499998,104.11127901224997L219.1283203125,102.83716681886935L219.79843749999998,104.31550033463573L220.4685546875,104.45490016683065L221.138671875,105.16747343626095L221.8087890625,103.99301680378007L222.47890625,103.90540932686262L223.1490234375,104.03084608557504L223.819140625,103.82130685633031L224.4892578125,105.02465126426385L225.15937499999998,105.12959140645285L225.8294921875,104.21948826774053L226.499609375,104.21929345010177L227.16972656250002,103.36477624264433L227.83984375,104.20486583046362L228.5099609375,104.72078645069746L229.180078125,104.76927127345014L229.8501953125,104.79836216710174L230.5203125,102.98835093066394L231.1904296875,103.51620988221148L231.860546875,104.46185862325338L232.53066406250002,103.55778104843324L233.20078125,104.00026859510915L233.87089843750002,104.68109441400951L234.541015625,104.21145585339102L235.21113281249998,104.15513966378073L235.88125,103.11268389163315L236.55136718749998,103.04494436147553L237.221484375,104.47576746282623L237.8916015625,105.1443932112315L238.56171875,103.38583590127581L239.2318359375,103.33936757368377L239.901953125,104.03535311930895L240.5720703125,104.63094569154693L241.2421875,104.81029999002683L241.91230468749998,105.00098064191063L242.582421875,104.79498891421309L243.2525390625,104.08992620937914L243.92265625000002,104.14155621508496L244.5927734375,102.85533314057035L245.262890625,102.55826692446773" style="fill: none;" fill="none"></path></g></g></g></g><g opacity="0.2"><g><g><g><path stroke="rgb(238, 51, 119)" stroke-width="2px" d="M40.8771484375,-14.269668618837965L41.547265625,1.958003083864861L42.2173828125,12.81600121657055L42.8875,21.53799855709078L43.5576171875,28.183329443136863L44.227734375000004,34.62100340922676L44.8978515625,37.49867016077044L45.567968750000006,41.02899694442751L46.238085937499996,45.62733296553295L46.908203125,49.24666567643486L47.5783203125,49.09833425283434L48.2484375,53.54833000898363L48.9185546875,56.60399977366131L49.588671875,54.438336233297996L50.2587890625,57.49399715662005L50.92890625,59.83766371011736L51.5990234375,61.2616701324781L52.269140625,66.24566608667375L52.9392578125,60.63866400718691L53.609375,62.6856677134832L54.279492187500004,64.37666539351147L54.949609374999994,68.44100121657056L55.6197265625,63.397670924663565L56.289843749999996,67.461997906367L56.9599609375,67.2246693968773L57.630078125,67.16533505916597L58.3001953125,66.66099760929745L58.9703125,65.23700002829236L59.6404296875,70.51766767104469L60.310546875,71.49667098124824L60.980664062500004,71.6746651530266L61.65078125,74.55233190457028L62.320898437500006,75.97632948557538L62.991015624999996,74.8786663413048L63.6611328125,74.8786663413048L64.33125,72.65366846323015L65.0013671875,76.59933561086656L65.671484375,75.14566644032799L66.3416015625,78.34966762860618L67.01171875,73.12833432356518L67.6818359375,77.13333580891293L68.351953125,74.4633348186811L69.0220703125,76.8959984580676L69.6921875,77.60800166924797L70.3623046875,78.58699613809587L71.032421875,76.12466975053154L71.70253906250001,76.45100418726605L72.37265625,78.11233027776085L73.0427734375,77.87500176827115L73.712890625,78.6760020653407L74.38300781250001,80.15933398405713L75.05312500000001,81.04933136701585L75.72324218749999,79.92199663321179L76.39335937499999,82.79966338475548L77.0634765625,83.39299792051317L77.73359375,83.03700073560081L78.4037109375,82.59199762344362L79.07382812499999,77.16299855709077L79.7439453125,79.44733077287675L80.4140625,82.74032904704414L81.0841796875,86.18166758616768L81.754296875,83.03700073560081L82.4244140625,86.56733636061352L83.09453125,85.79599881172182L83.7646484375,87.0716649691264L84.434765625,88.0803310275078L85.1048828125,84.37200123071672L85.775,86.06299891074501L86.4451171875,89.2670000990232L87.115234375,87.36833665768307L87.7853515625,85.3213329513868L88.45546875000001,85.85533314943315L89.1255859375,81.55366881688438L89.795703125,87.1013365586599L90.4658203125,87.21999639272691L91.13593750000001,90.83933352430664L91.80605468750001,87.2496679822604L92.47617187499999,89.14833142360054L93.14628906249999,85.58833305040997L93.81640625,87.99133394161862L94.4865234375,82.1173317631086L95.156640625,87.19033364454907L95.82675781249999,87.87266526619595L96.496875,84.66866407791775L97.1669921875,89.29666726787887L97.837109375,91.8776667515437L98.5072265625,89.20766576131187L99.17734375,89.32633443673454L99.8474609375,89.7713331282139L100.517578125,86.4783304333687L101.1876953125,90.95800219972931L101.8578125,86.4783304333687L102.5279296875,89.71199879050256L103.198046875,86.62667069832486L103.8681640625,86.59699910879137L104.53828125,91.31399938464166L105.20839843750001,95.34866803884508L105.878515625,94.13233179847401L106.5486328125,94.5773349106312L107.21875,93.77633461356164L107.88886718750001,93.62799876928331L108.55898437500001,92.70833421746892L109.22910156249999,92.85666564106943L109.89921874999999,94.34000198046368L110.5693359375,93.27200158437095L111.239453125,96.7429984509945L111.9095703125,94.9036649266879L112.57968749999999,92.50066845615707L113.2498046875,92.26333552598955L113.919921875,93.8949988683065L114.5900390625,95.79366673032445L115.26015625,92.50066845615707L115.9302734375,94.19166613618535L116.600390625,93.24233441551529L117.2705078125,96.06066682934762L117.940625,95.22999936342241L118.6107421875,97.0099985500177L119.280859375,95.0816679398219L119.9509765625,94.22133330504101L120.62109375,96.14966833591463L121.2912109375,98.07799894611043L121.96132812500001,97.06933288772903L122.6314453125,94.66633199652038L123.3015625,92.26333552598955L123.9716796875,93.27200158437095L124.64179687500001,91.84799958268803L125.31191406250001,92.05566534399988L125.98203124999999,92.85666564106943L126.65214843749999,94.04333471258484L127.322265625,93.4796673456828L127.9923828125,93.65766593813898L128.6625,95.76399956146878L129.3326171875,95.20033219456674L130.002734375,93.00500148534776L130.6728515625,93.8949988683065L131.34296875,93.03466865420343L132.0130859375,93.80600178241731L132.683203125,92.67866704861325L133.3533203125,93.03466865420343L134.0234375,96.80233278870584L134.69355468749998,97.06933288772903L135.363671875,95.17066502571107L136.03378906249998,96.14966833591463L136.70390625,95.70466522375744L137.3740234375,94.81466784079872L138.044140625,95.31900086998941L138.7142578125,97.57366591691972L139.384375,91.284332215786L140.0544921875,95.64533530672394L140.724609375,97.1880015631517L141.39472656249998,97.42533449331921L142.06484375,96.06066682934762L142.7349609375,96.7429984509945L143.40507812500002,97.54399874806406L144.0751953125,94.28066764275235L144.7453125,95.73433239261311L145.4154296875,96.38700126608215L146.085546875,98.7010006507238L146.7556640625,98.93833358089131L147.42578125,98.37466621398927L148.0958984375,94.36966472864152L148.76601562500002,98.55266480644546L149.4361328125,97.45500166217488L150.10625000000002,93.09399857123695L150.7763671875,95.55633380015693L151.44648437499998,96.98033138116203L152.1166015625,96.03099966049196L152.78671874999998,94.75533350308739L153.4568359375,98.4340005517006L154.126953125,99.23500084877016L154.7970703125,100.57000134388608L155.4671875,101.87533467014633L156.1373046875,97.75166450937591L156.807421875,95.88266823689145L157.4775390625,92.85666564106943L158.14765624999998,96.26833259065948L158.8177734375,96.80233278870584L159.487890625,97.42533449331921L160.15800781250002,94.0730018814405L160.828125,97.24733148018521L161.4982421875,98.76033498843513L162.168359375,97.95933469136558L162.8384765625,99.08666500449182L163.50859375,97.54399874806406L164.1787109375,99.17566651105882L164.848828125,97.30666581789654L165.51894531250002,97.36600015560788L166.1890625,97.42533449331921L166.85917968750002,97.69233459234239L167.529296875,98.46366772055627L168.19941406249998,98.07799894611043L168.86953125,102.379667699337L169.53964843749998,97.84066601594292L170.209765625,99.41299944122635L170.8798828125,97.21766873200737L171.55,97.72200176119806L172.2201171875,98.25600195924443L172.890234375,100.09533548355104L173.5603515625,100.80733427405357L174.23046875,98.1966676215331L174.90058593749998,97.1880015631517L175.570703125,103.23999791344009L176.2408203125,105.37599870562553L176.91093750000002,104.48600132266682L177.5810546875,105.31666878859204L178.251171875,104.04099821050964L178.9212890625,103.38833375771843L179.59140625,99.05699783563615L180.2615234375,101.28200013438862L180.931640625,102.79499922196072L181.6017578125,100.65899842977524L182.27187500000002,103.50699801246327L182.9419921875,103.26966508229576L183.61210937500002,102.29066619277L184.2822265625,103.18066799640656L184.95234374999998,103.59599951903027L185.6224609375,102.29066619277L186.29257812499998,105.90999890367192L186.9626953125,103.83333244919777L187.6328125,102.76533205310506L188.3029296875,103.47733526428543L188.973046875,104.96066718300186L189.6431640625,100.54033417503041L190.31328125,104.07066537936531L190.9833984375,102.46866478522621L191.65351562499998,102.55766629179321L192.3236328125,100.2139997382959L192.99375,102.82466639081639L193.66386718750002,102.05333326260251L194.333984375,104.18933405478798L195.0041015625,101.54900023341179L195.67421875,101.63800173997879L196.3443359375,102.379667699337L197.014453125,102.17200193802518L197.6845703125,106.6813320318858L198.3546875,104.96066718300186L199.02480468750002,103.92233395576477L199.694921875,97.90000035365425L200.36503906250002,101.99399892489117L201.03515625,103.4180009265741L201.70527343749998,105.55400171875954L202.375390625,102.43900203704834L203.04550781249998,100.09533548355104L203.715625,100.86666861176491L204.3857421875,102.05333326260251L205.055859375,102.379667699337L205.7259765625,102.32033336162567L206.39609375,101.99399892489117L207.0662109375,103.83333244919777L207.736328125,100.24366690715156L208.40644531249998,102.05333326260251L209.0765625,101.04466720422111L209.7466796875,101.10400154193245L210.41679687500002,106.50333343942962L211.0869140625,103.59599951903027L211.75703125,102.76533205310506L212.4271484375,103.15100082755089L213.097265625,101.816000332435L213.7673828125,105.1683329443137L214.4375,103.77399811148643L215.1076171875,103.68500102559727L215.77773437500002,99.47233377893768L216.4478515625,104.04099821050964L217.11796875000002,103.77399811148643L217.7880859375,105.4946673810482L218.45820312499998,104.10033254822098L219.1283203125,100.92599852879844L219.79843749999998,106.53300060828529L220.4685546875,104.66399991512299L221.138671875,106.23633334040642L221.8087890625,102.23133185505867L222.47890625,103.77399811148643L223.1490234375,104.21900122364364L223.819140625,103.50699801246327L224.4892578125,106.82966787616414L225.15937499999998,105.28700161973637L225.8294921875,102.85433355967206L226.499609375,104.21900122364364L227.16972656250002,102.08300043145817L227.83984375,105.46500021219254L228.5099609375,105.4946673810482L229.180078125,104.84199850757919L229.8501953125,104.84199850757919L230.5203125,100.27333407600723L231.1904296875,104.30799830953282L231.860546875,105.88033173481625L232.53066406250002,102.201664686203L233.20078125,104.66399991512299L233.87089843750002,105.70233314236008L234.541015625,103.50699801246327L235.21113281249998,104.07066537936531L235.88125,101.54900023341179L236.55136718749998,102.94333506623906L237.221484375,106.6220021148523L237.8916015625,106.14733183383942L238.56171875,100.74799993634224L239.2318359375,103.26966508229576L239.901953125,105.0793314377467L240.5720703125,105.52433454990387L241.2421875,105.0793314377467L241.91230468749998,105.28700161973637L242.582421875,104.48600132266682L243.2525390625,103.03233215212822L243.92265625000002,104.21900122364364L244.5927734375,100.92599852879844L245.262890625,102.11266760031384" style="fill: none;" fill="none"></path></g></g></g></g></g></g><g transform="translate(61, 178)" clip-path="url(#clip_1)"><clipPath id="clip_1"><rect width="268" height="22"></rect></clipPath><g><g><line x1="0" y1="0" x2="0" y2="5" style="visibility: inherit;" fill="rgb(0, 0, 0)" stroke="rgb(204, 204, 204)" stroke-width="1px"></line><line x1="33.505859375" y1="0" x2="33.505859375" y2="5" style="visibility: inherit;" fill="rgb(0, 0, 0)" stroke="rgb(204, 204, 204)" stroke-width="1px"></line><line x1="67.01171875" y1="0" x2="67.01171875" y2="5" style="visibility: inherit;" fill="rgb(0, 0, 0)" stroke="rgb(204, 204, 204)" stroke-width="1px"></line><line x1="100.517578125" y1="0" x2="100.517578125" y2="5" style="visibility: inherit;" fill="rgb(0, 0, 0)" stroke="rgb(204, 204, 204)" stroke-width="1px"></line><line x1="134.0234375" y1="0" x2="134.0234375" y2="5" style="visibility: inherit;" fill="rgb(0, 0, 0)" stroke="rgb(204, 204, 204)" stroke-width="1px"></line><line x1="167.529296875" y1="0" x2="167.529296875" y2="5" style="visibility: inherit;" fill="rgb(0, 0, 0)" stroke="rgb(204, 204, 204)" stroke-width="1px"></line><line x1="201.03515625" y1="0" x2="201.03515625" y2="5" style="visibility: inherit;" fill="rgb(0, 0, 0)" stroke="rgb(204, 204, 204)" stroke-width="1px"></line><line x1="234.541015625" y1="0" x2="234.541015625" y2="5" style="visibility: inherit;" fill="rgb(0, 0, 0)" stroke="rgb(204, 204, 204)" stroke-width="1px"></line><line x1="268.046875" y1="0" x2="268.046875" y2="5" style="visibility: inherit;" fill="rgb(0, 0, 0)" stroke="rgb(204, 204, 204)" stroke-width="1px"></line></g><g transform="translate(0, 8)"><text x="0" y="0" dx="0em" dy="0.95em" style="text-anchor: middle; visibility: hidden; font-family: Roboto, sans-serif; font-size: 12px; font-weight: 200;" fill="rgb(50, 49, 63)" stroke="none" stroke-width="1px">-500</text><text x="33.505859375" y="0" dx="0em" dy="0.95em" style="text-anchor: middle; visibility: inherit; font-family: Roboto, sans-serif; font-size: 12px; font-weight: 200;" fill="rgb(50, 49, 63)" stroke="none" stroke-width="1px">0</text><text x="67.01171875" y="0" dx="0em" dy="0.95em" style="text-anchor: middle; visibility: inherit; font-family: Roboto, sans-serif; font-size: 12px; font-weight: 200;" fill="rgb(50, 49, 63)" stroke="none" stroke-width="1px">500</text><text x="100.517578125" y="0" dx="0em" dy="0.95em" style="text-anchor: middle; visibility: inherit; font-family: Roboto, sans-serif; font-size: 12px; font-weight: 200;" fill="rgb(50, 49, 63)" stroke="none" stroke-width="1px">1k</text><text x="134.0234375" y="0" dx="0em" dy="0.95em" style="text-anchor: middle; visibility: inherit; font-family: Roboto, sans-serif; font-size: 12px; font-weight: 200;" fill="rgb(50, 49, 63)" stroke="none" stroke-width="1px">1.5k</text><text x="167.529296875" y="0" dx="0em" dy="0.95em" style="text-anchor: middle; visibility: inherit; font-family: Roboto, sans-serif; font-size: 12px; font-weight: 200;" fill="rgb(50, 49, 63)" stroke="none" stroke-width="1px">2k</text><text x="201.03515625" y="0" dx="0em" dy="0.95em" style="text-anchor: middle; visibility: inherit; font-family: Roboto, sans-serif; font-size: 12px; font-weight: 200;" fill="rgb(50, 49, 63)" stroke="none" stroke-width="1px">2.5k</text><text x="234.541015625" y="0" dx="0em" dy="0.95em" style="text-anchor: middle; visibility: inherit; font-family: Roboto, sans-serif; font-size: 12px; font-weight: 200;" fill="rgb(50, 49, 63)" stroke="none" stroke-width="1px">3k</text><text x="268.046875" y="0" dx="0em" dy="0.95em" style="text-anchor: middle; visibility: hidden; font-family: Roboto, sans-serif; font-size: 12px; font-weight: 200;" fill="rgb(50, 49, 63)" stroke="none" stroke-width="1px">3.5k</text></g><line x1="0" y1="0" x2="268.046875" y2="0" fill="rgb(0, 0, 0)" stroke="rgb(204, 204, 204)" stroke-width="1px"></line></g></g></g></g></svg>